<?xml version="1.0" encoding="utf-8" standalone="no"?>
<!DOCTYPE svg PUBLIC "-//W3C//DTD SVG 1.1//EN"
  "http://www.w3.org/Graphics/SVG/1.1/DTD/svg11.dtd">
<!-- Created with matplotlib (https://matplotlib.org/) -->
<svg height="288pt" version="1.1" viewBox="0 0 432 288" width="432pt" xmlns="http://www.w3.org/2000/svg" xmlns:xlink="http://www.w3.org/1999/xlink">
 <defs>
  <style type="text/css">
*{stroke-linecap:butt;stroke-linejoin:round;}
  </style>
 </defs>
 <g id="figure_1">
  <g id="patch_1">
   <path d="M 0 288 
L 432 288 
L 432 0 
L 0 0 
z
" style="fill:#ffffff;"/>
  </g>
  <g id="axes_1">
   <g id="patch_2">
    <path d="M 54 252 
L 388.8 252 
L 388.8 34.56 
L 54 34.56 
z
" style="fill:#ffffff;"/>
   </g>
   <g id="matplotlib.axis_1">
    <g id="xtick_1">
     <g id="line2d_1">
      <defs>
       <path d="M 0 0 
L 0 3.5 
" id="m7f0b5b25fc" style="stroke:#000000;stroke-width:0.8;"/>
      </defs>
      <g>
       <use style="stroke:#000000;stroke-width:0.8;" x="69.218182" xlink:href="#m7f0b5b25fc" y="252"/>
      </g>
     </g>
     <g id="text_1">
      <!-- 0 -->
      <defs>
       <path d="M 31.78125 66.40625 
Q 24.171875 66.40625 20.328125 58.90625 
Q 16.5 51.421875 16.5 36.375 
Q 16.5 21.390625 20.328125 13.890625 
Q 24.171875 6.390625 31.78125 6.390625 
Q 39.453125 6.390625 43.28125 13.890625 
Q 47.125 21.390625 47.125 36.375 
Q 47.125 51.421875 43.28125 58.90625 
Q 39.453125 66.40625 31.78125 66.40625 
z
M 31.78125 74.21875 
Q 44.046875 74.21875 50.515625 64.515625 
Q 56.984375 54.828125 56.984375 36.375 
Q 56.984375 17.96875 50.515625 8.265625 
Q 44.046875 -1.421875 31.78125 -1.421875 
Q 19.53125 -1.421875 13.0625 8.265625 
Q 6.59375 17.96875 6.59375 36.375 
Q 6.59375 54.828125 13.0625 64.515625 
Q 19.53125 74.21875 31.78125 74.21875 
z
" id="DejaVuSans-48"/>
      </defs>
      <g transform="translate(66.036932 266.598437)scale(0.1 -0.1)">
       <use xlink:href="#DejaVuSans-48"/>
      </g>
     </g>
    </g>
    <g id="xtick_2">
     <g id="line2d_2">
      <g>
       <use style="stroke:#000000;stroke-width:0.8;" x="107.45482" xlink:href="#m7f0b5b25fc" y="252"/>
      </g>
     </g>
     <g id="text_2">
      <!-- 25 -->
      <defs>
       <path d="M 19.1875 8.296875 
L 53.609375 8.296875 
L 53.609375 0 
L 7.328125 0 
L 7.328125 8.296875 
Q 12.9375 14.109375 22.625 23.890625 
Q 32.328125 33.6875 34.8125 36.53125 
Q 39.546875 41.84375 41.421875 45.53125 
Q 43.3125 49.21875 43.3125 52.78125 
Q 43.3125 58.59375 39.234375 62.25 
Q 35.15625 65.921875 28.609375 65.921875 
Q 23.96875 65.921875 18.8125 64.3125 
Q 13.671875 62.703125 7.8125 59.421875 
L 7.8125 69.390625 
Q 13.765625 71.78125 18.9375 73 
Q 24.125 74.21875 28.421875 74.21875 
Q 39.75 74.21875 46.484375 68.546875 
Q 53.21875 62.890625 53.21875 53.421875 
Q 53.21875 48.921875 51.53125 44.890625 
Q 49.859375 40.875 45.40625 35.40625 
Q 44.1875 33.984375 37.640625 27.21875 
Q 31.109375 20.453125 19.1875 8.296875 
z
" id="DejaVuSans-50"/>
       <path d="M 10.796875 72.90625 
L 49.515625 72.90625 
L 49.515625 64.59375 
L 19.828125 64.59375 
L 19.828125 46.734375 
Q 21.96875 47.46875 24.109375 47.828125 
Q 26.265625 48.1875 28.421875 48.1875 
Q 40.625 48.1875 47.75 41.5 
Q 54.890625 34.8125 54.890625 23.390625 
Q 54.890625 11.625 47.5625 5.09375 
Q 40.234375 -1.421875 26.90625 -1.421875 
Q 22.3125 -1.421875 17.546875 -0.640625 
Q 12.796875 0.140625 7.71875 1.703125 
L 7.71875 11.625 
Q 12.109375 9.234375 16.796875 8.0625 
Q 21.484375 6.890625 26.703125 6.890625 
Q 35.15625 6.890625 40.078125 11.328125 
Q 45.015625 15.765625 45.015625 23.390625 
Q 45.015625 31 40.078125 35.4375 
Q 35.15625 39.890625 26.703125 39.890625 
Q 22.75 39.890625 18.8125 39.015625 
Q 14.890625 38.140625 10.796875 36.28125 
z
" id="DejaVuSans-53"/>
      </defs>
      <g transform="translate(101.09232 266.598437)scale(0.1 -0.1)">
       <use xlink:href="#DejaVuSans-50"/>
       <use x="63.623047" xlink:href="#DejaVuSans-53"/>
      </g>
     </g>
    </g>
    <g id="xtick_3">
     <g id="line2d_3">
      <g>
       <use style="stroke:#000000;stroke-width:0.8;" x="145.691457" xlink:href="#m7f0b5b25fc" y="252"/>
      </g>
     </g>
     <g id="text_3">
      <!-- 50 -->
      <g transform="translate(139.328957 266.598437)scale(0.1 -0.1)">
       <use xlink:href="#DejaVuSans-53"/>
       <use x="63.623047" xlink:href="#DejaVuSans-48"/>
      </g>
     </g>
    </g>
    <g id="xtick_4">
     <g id="line2d_4">
      <g>
       <use style="stroke:#000000;stroke-width:0.8;" x="183.928095" xlink:href="#m7f0b5b25fc" y="252"/>
      </g>
     </g>
     <g id="text_4">
      <!-- 75 -->
      <defs>
       <path d="M 8.203125 72.90625 
L 55.078125 72.90625 
L 55.078125 68.703125 
L 28.609375 0 
L 18.3125 0 
L 43.21875 64.59375 
L 8.203125 64.59375 
z
" id="DejaVuSans-55"/>
      </defs>
      <g transform="translate(177.565595 266.598437)scale(0.1 -0.1)">
       <use xlink:href="#DejaVuSans-55"/>
       <use x="63.623047" xlink:href="#DejaVuSans-53"/>
      </g>
     </g>
    </g>
    <g id="xtick_5">
     <g id="line2d_5">
      <g>
       <use style="stroke:#000000;stroke-width:0.8;" x="222.164733" xlink:href="#m7f0b5b25fc" y="252"/>
      </g>
     </g>
     <g id="text_5">
      <!-- 100 -->
      <defs>
       <path d="M 12.40625 8.296875 
L 28.515625 8.296875 
L 28.515625 63.921875 
L 10.984375 60.40625 
L 10.984375 69.390625 
L 28.421875 72.90625 
L 38.28125 72.90625 
L 38.28125 8.296875 
L 54.390625 8.296875 
L 54.390625 0 
L 12.40625 0 
z
" id="DejaVuSans-49"/>
      </defs>
      <g transform="translate(212.620983 266.598437)scale(0.1 -0.1)">
       <use xlink:href="#DejaVuSans-49"/>
       <use x="63.623047" xlink:href="#DejaVuSans-48"/>
       <use x="127.246094" xlink:href="#DejaVuSans-48"/>
      </g>
     </g>
    </g>
    <g id="xtick_6">
     <g id="line2d_6">
      <g>
       <use style="stroke:#000000;stroke-width:0.8;" x="260.40137" xlink:href="#m7f0b5b25fc" y="252"/>
      </g>
     </g>
     <g id="text_6">
      <!-- 125 -->
      <g transform="translate(250.85762 266.598437)scale(0.1 -0.1)">
       <use xlink:href="#DejaVuSans-49"/>
       <use x="63.623047" xlink:href="#DejaVuSans-50"/>
       <use x="127.246094" xlink:href="#DejaVuSans-53"/>
      </g>
     </g>
    </g>
    <g id="xtick_7">
     <g id="line2d_7">
      <g>
       <use style="stroke:#000000;stroke-width:0.8;" x="298.638008" xlink:href="#m7f0b5b25fc" y="252"/>
      </g>
     </g>
     <g id="text_7">
      <!-- 150 -->
      <g transform="translate(289.094258 266.598437)scale(0.1 -0.1)">
       <use xlink:href="#DejaVuSans-49"/>
       <use x="63.623047" xlink:href="#DejaVuSans-53"/>
       <use x="127.246094" xlink:href="#DejaVuSans-48"/>
      </g>
     </g>
    </g>
    <g id="xtick_8">
     <g id="line2d_8">
      <g>
       <use style="stroke:#000000;stroke-width:0.8;" x="336.874646" xlink:href="#m7f0b5b25fc" y="252"/>
      </g>
     </g>
     <g id="text_8">
      <!-- 175 -->
      <g transform="translate(327.330896 266.598437)scale(0.1 -0.1)">
       <use xlink:href="#DejaVuSans-49"/>
       <use x="63.623047" xlink:href="#DejaVuSans-55"/>
       <use x="127.246094" xlink:href="#DejaVuSans-53"/>
      </g>
     </g>
    </g>
    <g id="xtick_9">
     <g id="line2d_9">
      <g>
       <use style="stroke:#000000;stroke-width:0.8;" x="375.111284" xlink:href="#m7f0b5b25fc" y="252"/>
      </g>
     </g>
     <g id="text_9">
      <!-- 200 -->
      <g transform="translate(365.567534 266.598437)scale(0.1 -0.1)">
       <use xlink:href="#DejaVuSans-50"/>
       <use x="63.623047" xlink:href="#DejaVuSans-48"/>
       <use x="127.246094" xlink:href="#DejaVuSans-48"/>
      </g>
     </g>
    </g>
   </g>
   <g id="matplotlib.axis_2">
    <g id="ytick_1">
     <g id="line2d_10">
      <defs>
       <path d="M 0 0 
L -3.5 0 
" id="mc18c38f381" style="stroke:#000000;stroke-width:0.8;"/>
      </defs>
      <g>
       <use style="stroke:#000000;stroke-width:0.8;" x="54" xlink:href="#mc18c38f381" y="230.927979"/>
      </g>
     </g>
     <g id="text_10">
      <!-- 0.25 -->
      <defs>
       <path d="M 10.6875 12.40625 
L 21 12.40625 
L 21 0 
L 10.6875 0 
z
" id="DejaVuSans-46"/>
      </defs>
      <g transform="translate(24.734375 234.727198)scale(0.1 -0.1)">
       <use xlink:href="#DejaVuSans-48"/>
       <use x="63.623047" xlink:href="#DejaVuSans-46"/>
       <use x="95.410156" xlink:href="#DejaVuSans-50"/>
       <use x="159.033203" xlink:href="#DejaVuSans-53"/>
      </g>
     </g>
    </g>
    <g id="ytick_2">
     <g id="line2d_11">
      <g>
       <use style="stroke:#000000;stroke-width:0.8;" x="54" xlink:href="#mc18c38f381" y="206.752823"/>
      </g>
     </g>
     <g id="text_11">
      <!-- 0.50 -->
      <g transform="translate(24.734375 210.552041)scale(0.1 -0.1)">
       <use xlink:href="#DejaVuSans-48"/>
       <use x="63.623047" xlink:href="#DejaVuSans-46"/>
       <use x="95.410156" xlink:href="#DejaVuSans-53"/>
       <use x="159.033203" xlink:href="#DejaVuSans-48"/>
      </g>
     </g>
    </g>
    <g id="ytick_3">
     <g id="line2d_12">
      <g>
       <use style="stroke:#000000;stroke-width:0.8;" x="54" xlink:href="#mc18c38f381" y="182.577666"/>
      </g>
     </g>
     <g id="text_12">
      <!-- 0.75 -->
      <g transform="translate(24.734375 186.376885)scale(0.1 -0.1)">
       <use xlink:href="#DejaVuSans-48"/>
       <use x="63.623047" xlink:href="#DejaVuSans-46"/>
       <use x="95.410156" xlink:href="#DejaVuSans-55"/>
       <use x="159.033203" xlink:href="#DejaVuSans-53"/>
      </g>
     </g>
    </g>
    <g id="ytick_4">
     <g id="line2d_13">
      <g>
       <use style="stroke:#000000;stroke-width:0.8;" x="54" xlink:href="#mc18c38f381" y="158.402509"/>
      </g>
     </g>
     <g id="text_13">
      <!-- 1.00 -->
      <g transform="translate(24.734375 162.201728)scale(0.1 -0.1)">
       <use xlink:href="#DejaVuSans-49"/>
       <use x="63.623047" xlink:href="#DejaVuSans-46"/>
       <use x="95.410156" xlink:href="#DejaVuSans-48"/>
       <use x="159.033203" xlink:href="#DejaVuSans-48"/>
      </g>
     </g>
    </g>
    <g id="ytick_5">
     <g id="line2d_14">
      <g>
       <use style="stroke:#000000;stroke-width:0.8;" x="54" xlink:href="#mc18c38f381" y="134.227353"/>
      </g>
     </g>
     <g id="text_14">
      <!-- 1.25 -->
      <g transform="translate(24.734375 138.026571)scale(0.1 -0.1)">
       <use xlink:href="#DejaVuSans-49"/>
       <use x="63.623047" xlink:href="#DejaVuSans-46"/>
       <use x="95.410156" xlink:href="#DejaVuSans-50"/>
       <use x="159.033203" xlink:href="#DejaVuSans-53"/>
      </g>
     </g>
    </g>
    <g id="ytick_6">
     <g id="line2d_15">
      <g>
       <use style="stroke:#000000;stroke-width:0.8;" x="54" xlink:href="#mc18c38f381" y="110.052196"/>
      </g>
     </g>
     <g id="text_15">
      <!-- 1.50 -->
      <g transform="translate(24.734375 113.851415)scale(0.1 -0.1)">
       <use xlink:href="#DejaVuSans-49"/>
       <use x="63.623047" xlink:href="#DejaVuSans-46"/>
       <use x="95.410156" xlink:href="#DejaVuSans-53"/>
       <use x="159.033203" xlink:href="#DejaVuSans-48"/>
      </g>
     </g>
    </g>
    <g id="ytick_7">
     <g id="line2d_16">
      <g>
       <use style="stroke:#000000;stroke-width:0.8;" x="54" xlink:href="#mc18c38f381" y="85.877039"/>
      </g>
     </g>
     <g id="text_16">
      <!-- 1.75 -->
      <g transform="translate(24.734375 89.676258)scale(0.1 -0.1)">
       <use xlink:href="#DejaVuSans-49"/>
       <use x="63.623047" xlink:href="#DejaVuSans-46"/>
       <use x="95.410156" xlink:href="#DejaVuSans-55"/>
       <use x="159.033203" xlink:href="#DejaVuSans-53"/>
      </g>
     </g>
    </g>
    <g id="ytick_8">
     <g id="line2d_17">
      <g>
       <use style="stroke:#000000;stroke-width:0.8;" x="54" xlink:href="#mc18c38f381" y="61.701883"/>
      </g>
     </g>
     <g id="text_17">
      <!-- 2.00 -->
      <g transform="translate(24.734375 65.501101)scale(0.1 -0.1)">
       <use xlink:href="#DejaVuSans-50"/>
       <use x="63.623047" xlink:href="#DejaVuSans-46"/>
       <use x="95.410156" xlink:href="#DejaVuSans-48"/>
       <use x="159.033203" xlink:href="#DejaVuSans-48"/>
      </g>
     </g>
    </g>
    <g id="ytick_9">
     <g id="line2d_18">
      <g>
       <use style="stroke:#000000;stroke-width:0.8;" x="54" xlink:href="#mc18c38f381" y="37.526726"/>
      </g>
     </g>
     <g id="text_18">
      <!-- 2.25 -->
      <g transform="translate(24.734375 41.325945)scale(0.1 -0.1)">
       <use xlink:href="#DejaVuSans-50"/>
       <use x="63.623047" xlink:href="#DejaVuSans-46"/>
       <use x="95.410156" xlink:href="#DejaVuSans-50"/>
       <use x="159.033203" xlink:href="#DejaVuSans-53"/>
      </g>
     </g>
    </g>
   </g>
   <g id="line2d_19">
    <path clip-path="url(#pdcdc0e7d1b)" d="M 69.218182 44.443636 
L 70.747647 100.454691 
L 72.277113 117.267479 
L 73.806578 130.163629 
L 75.336044 140.343175 
L 76.865509 148.150207 
L 78.394975 154.98883 
L 79.92444 160.803839 
L 82.983371 170.029856 
L 86.042302 177.607994 
L 87.571768 180.310965 
L 89.101233 182.513722 
L 92.160164 187.814816 
L 93.68963 189.45806 
L 95.219095 192.277014 
L 96.748561 193.25044 
L 99.807492 196.570786 
L 101.336958 198.474984 
L 102.866423 199.451644 
L 104.395889 201.144937 
L 107.45482 203.293285 
L 108.984285 205.070882 
L 110.513751 205.367385 
L 112.043216 206.262273 
L 115.102147 208.711499 
L 116.631613 209.621585 
L 118.161078 210.228595 
L 121.220009 211.671824 
L 122.749475 212.670791 
L 125.808406 213.7351 
L 127.337871 214.771015 
L 128.867337 214.88475 
L 130.396802 215.976622 
L 131.926268 216.818665 
L 133.455733 216.97593 
L 134.985199 217.870702 
L 136.514664 217.711618 
L 138.04413 219.166966 
L 139.573595 219.92132 
L 141.103061 219.683472 
L 142.632526 220.527519 
L 144.161992 220.738373 
L 145.691457 221.084886 
L 147.220923 222.099592 
L 148.750388 222.48618 
L 150.279854 222.493209 
L 151.809319 222.951593 
L 153.338785 223.626615 
L 154.86825 223.720857 
L 157.927181 224.45898 
L 159.456647 224.766597 
L 160.986112 225.449805 
L 162.515578 225.77337 
L 164.045043 225.661618 
L 165.574509 226.302248 
L 168.63344 226.447485 
L 170.162905 227.027603 
L 171.692371 227.053708 
L 173.221836 227.546604 
L 174.751302 228.365891 
L 176.280767 227.984544 
L 177.810233 228.818166 
L 179.339698 228.660478 
L 180.869164 228.988152 
L 182.39863 229.977628 
L 183.928095 229.310173 
L 191.575423 230.537987 
L 193.104888 230.692645 
L 194.634354 231.135176 
L 196.163819 231.097747 
L 202.281681 231.963545 
L 203.811147 231.772208 
L 205.340612 232.108859 
L 206.870078 232.18096 
L 208.399543 232.862748 
L 209.929009 233.102307 
L 212.98794 232.727198 
L 214.517405 233.318703 
L 217.576336 233.48649 
L 219.105802 234.122786 
L 220.635267 233.802098 
L 222.164733 233.940389 
L 223.694198 234.620147 
L 226.753129 234.628903 
L 228.282595 235.126692 
L 229.81206 234.631233 
L 231.341526 235.345616 
L 232.870991 235.605014 
L 234.400457 235.290725 
L 235.929922 235.176007 
L 237.459388 235.597174 
L 238.988853 235.609719 
L 242.047784 235.394305 
L 243.57725 236.014906 
L 245.106715 235.850852 
L 246.636181 236.140554 
L 248.165646 236.207927 
L 249.695112 236.429533 
L 251.224577 236.908114 
L 255.812974 236.590703 
L 258.871905 237.010145 
L 260.40137 236.443797 
L 261.930836 237.174733 
L 263.460302 236.95447 
L 264.989767 237.420668 
L 266.519233 237.19872 
L 268.048698 237.934982 
L 269.578164 237.453708 
L 271.107629 237.840936 
L 272.637095 237.749564 
L 274.16656 238.055102 
L 275.696026 237.961198 
L 277.225491 238.182255 
L 278.754957 237.816932 
L 281.813888 238.406703 
L 283.343353 238.138814 
L 284.872819 238.394892 
L 286.402284 238.405607 
L 289.461215 238.778477 
L 290.990681 238.444444 
L 292.520146 239.076675 
L 294.049612 238.88342 
L 295.579077 239.161336 
L 297.108543 239.148121 
L 298.638008 238.891674 
L 300.167474 239.46596 
L 301.696939 238.716497 
L 303.226405 239.539584 
L 304.75587 239.397378 
L 306.285336 239.681382 
L 307.814801 239.104276 
L 309.344267 239.988949 
L 310.873732 240.043826 
L 312.403198 239.316938 
L 313.932663 239.995537 
L 315.462129 239.639294 
L 318.52106 240.038976 
L 320.050525 239.819528 
L 321.579991 240.356986 
L 323.109456 239.871713 
L 324.638922 240.66662 
L 326.168387 240.239041 
L 327.697853 240.286916 
L 329.227318 240.666232 
L 332.286249 240.173513 
L 333.815715 240.217367 
L 335.34518 240.742091 
L 336.874646 240.548631 
L 338.404111 240.845689 
L 339.933577 240.943715 
L 341.463042 240.612066 
L 342.992508 240.945719 
L 344.521974 241.025751 
L 346.051439 240.669026 
L 347.580905 241.038893 
L 350.639836 240.900364 
L 352.169301 240.609552 
L 353.698767 241.488133 
L 355.228232 241.184623 
L 356.757698 241.023751 
L 358.287163 241.515287 
L 359.816629 241.143968 
L 361.346094 241.285631 
L 362.87556 241.552744 
L 365.934491 240.98466 
L 367.463956 241.937186 
L 368.993422 241.970625 
L 370.522887 241.594525 
L 372.052353 242.116364 
L 373.581818 241.918757 
L 373.581818 241.918757 
" style="fill:none;stroke:#1f77b4;stroke-linecap:square;stroke-width:1.5;"/>
   </g>
   <g id="line2d_20">
    <path clip-path="url(#pdcdc0e7d1b)" d="M 69.218182 103.549143 
L 70.747647 124.688091 
L 72.277113 137.804098 
L 73.806578 147.034817 
L 75.336044 144.884142 
L 76.865509 162.744934 
L 78.394975 169.484164 
L 79.92444 172.473489 
L 81.453906 174.919745 
L 82.983371 181.179553 
L 84.512837 186.037104 
L 86.042302 186.858679 
L 87.571768 191.229013 
L 89.101233 188.313663 
L 90.630699 192.325123 
L 92.160164 194.873927 
L 93.68963 195.11363 
L 95.219095 193.689962 
L 96.748561 197.858084 
L 98.278026 199.642635 
L 99.807492 199.938613 
L 101.336958 200.783304 
L 102.866423 201.854613 
L 104.395889 201.493432 
L 105.925354 202.638966 
L 107.45482 204.897417 
L 108.984285 202.53494 
L 110.513751 204.346309 
L 112.043216 204.210072 
L 113.572682 205.544393 
L 115.102147 205.469492 
L 116.631613 206.005707 
L 118.161078 205.490637 
L 119.690544 206.353691 
L 124.27894 207.159673 
L 125.808406 205.338139 
L 127.337871 207.928351 
L 128.867337 209.161662 
L 130.396802 208.217224 
L 131.926268 209.193972 
L 133.455733 207.272691 
L 134.985199 208.702002 
L 136.514664 209.270124 
L 138.04413 209.187387 
L 139.573595 208.094808 
L 141.103061 209.890012 
L 142.632526 208.654257 
L 144.161992 210.495793 
L 145.691457 209.749474 
L 148.750388 209.267661 
L 150.279854 207.746806 
L 151.809319 208.368376 
L 153.338785 207.795582 
L 154.86825 210.06542 
L 156.397716 207.276911 
L 157.927181 208.072821 
L 159.456647 208.679785 
L 160.986112 209.090461 
L 162.515578 208.840788 
L 164.045043 207.811654 
L 165.574509 208.390047 
L 167.103974 209.333122 
L 168.63344 208.345234 
L 170.162905 209.336891 
L 171.692371 208.580055 
L 173.221836 209.639997 
L 174.751302 208.639702 
L 176.280767 208.448779 
L 177.810233 209.795187 
L 179.339698 207.981952 
L 180.869164 209.518006 
L 182.39863 210.537488 
L 183.928095 210.078822 
L 185.457561 209.061482 
L 186.987026 209.809048 
L 188.516492 209.577415 
L 190.045957 208.644428 
L 191.575423 206.958723 
L 193.104888 209.472602 
L 194.634354 206.744079 
L 196.163819 210.285056 
L 197.693285 208.40629 
L 199.22275 205.874854 
L 200.752216 209.071499 
L 202.281681 207.567486 
L 203.811147 208.843418 
L 205.340612 208.518166 
L 206.870078 209.710159 
L 208.399543 208.118359 
L 209.929009 208.752266 
L 211.458474 209.516931 
L 212.98794 209.553337 
L 214.517405 208.104081 
L 216.046871 210.136118 
L 217.576336 209.12381 
L 219.105802 207.814743 
L 220.635267 209.245596 
L 222.164733 210.012248 
L 223.694198 209.381812 
L 225.223664 207.137624 
L 226.753129 205.826897 
L 228.282595 209.000648 
L 231.341526 208.185677 
L 232.870991 206.250098 
L 234.400457 209.053779 
L 235.929922 209.482071 
L 237.459388 209.0459 
L 238.988853 207.313489 
L 240.518319 208.217849 
L 242.047784 208.418178 
L 245.106715 208.181324 
L 246.636181 205.167242 
L 248.165646 207.870297 
L 249.695112 207.139988 
L 251.224577 206.570441 
L 252.754043 206.912252 
L 254.283508 208.8756 
L 255.812974 207.417745 
L 257.342439 206.475719 
L 258.871905 205.672148 
L 260.40137 207.198391 
L 261.930836 208.550841 
L 263.460302 209.40611 
L 264.989767 208.132468 
L 266.519233 208.163946 
L 268.048698 207.298095 
L 269.578164 207.000059 
L 271.107629 207.794765 
L 272.637095 208.187183 
L 274.16656 206.884688 
L 275.696026 205.843862 
L 277.225491 207.410482 
L 278.754957 208.366234 
L 280.284422 208.765636 
L 281.813888 205.559707 
L 283.343353 207.616249 
L 284.872819 206.740173 
L 286.402284 207.070212 
L 287.93175 206.507339 
L 289.461215 206.520867 
L 290.990681 208.570589 
L 292.520146 205.054905 
L 294.049612 207.520924 
L 295.579077 207.298923 
L 297.108543 206.095652 
L 300.167474 208.260584 
L 301.696939 207.532723 
L 303.226405 207.836192 
L 304.75587 207.913498 
L 306.285336 207.439929 
L 307.814801 208.262693 
L 309.344267 204.482711 
L 310.873732 207.152554 
L 312.403198 207.717203 
L 313.932663 206.62869 
L 316.991594 207.188673 
L 320.050525 208.061959 
L 321.579991 204.183965 
L 323.109456 206.034676 
L 324.638922 206.236989 
L 326.168387 207.220892 
L 327.697853 206.391348 
L 329.227318 206.723366 
L 330.756784 205.746063 
L 332.286249 205.525912 
L 333.815715 207.791118 
L 336.874646 205.4071 
L 338.404111 207.006807 
L 339.933577 206.814842 
L 341.463042 206.95786 
L 342.992508 205.61701 
L 344.521974 204.484672 
L 346.051439 204.831192 
L 347.580905 206.242388 
L 349.11037 207.158506 
L 350.639836 206.359296 
L 352.169301 205.39855 
L 353.698767 204.304424 
L 355.228232 204.965088 
L 356.757698 206.255486 
L 358.287163 205.290479 
L 359.816629 206.703688 
L 361.346094 205.312323 
L 362.87556 205.759903 
L 364.405025 201.852025 
L 365.934491 205.801111 
L 367.463956 206.759979 
L 368.993422 205.290216 
L 370.522887 206.91195 
L 372.052353 205.179099 
L 373.581818 205.386099 
L 373.581818 205.386099 
" style="fill:none;stroke:#ff7f0e;stroke-linecap:square;stroke-width:1.5;"/>
   </g>
   <g id="patch_3">
    <path d="M 54 252 
L 54 34.56 
" style="fill:none;stroke:#000000;stroke-linecap:square;stroke-linejoin:miter;stroke-width:0.8;"/>
   </g>
   <g id="patch_4">
    <path d="M 388.8 252 
L 388.8 34.56 
" style="fill:none;stroke:#000000;stroke-linecap:square;stroke-linejoin:miter;stroke-width:0.8;"/>
   </g>
   <g id="patch_5">
    <path d="M 54 252 
L 388.8 252 
" style="fill:none;stroke:#000000;stroke-linecap:square;stroke-linejoin:miter;stroke-width:0.8;"/>
   </g>
   <g id="patch_6">
    <path d="M 54 34.56 
L 388.8 34.56 
" style="fill:none;stroke:#000000;stroke-linecap:square;stroke-linejoin:miter;stroke-width:0.8;"/>
   </g>
   <g id="text_19">
    <!-- Loss -->
    <defs>
     <path d="M 9.8125 72.90625 
L 19.671875 72.90625 
L 19.671875 8.296875 
L 55.171875 8.296875 
L 55.171875 0 
L 9.8125 0 
z
" id="DejaVuSans-76"/>
     <path d="M 30.609375 48.390625 
Q 23.390625 48.390625 19.1875 42.75 
Q 14.984375 37.109375 14.984375 27.296875 
Q 14.984375 17.484375 19.15625 11.84375 
Q 23.34375 6.203125 30.609375 6.203125 
Q 37.796875 6.203125 41.984375 11.859375 
Q 46.1875 17.53125 46.1875 27.296875 
Q 46.1875 37.015625 41.984375 42.703125 
Q 37.796875 48.390625 30.609375 48.390625 
z
M 30.609375 56 
Q 42.328125 56 49.015625 48.375 
Q 55.71875 40.765625 55.71875 27.296875 
Q 55.71875 13.875 49.015625 6.21875 
Q 42.328125 -1.421875 30.609375 -1.421875 
Q 18.84375 -1.421875 12.171875 6.21875 
Q 5.515625 13.875 5.515625 27.296875 
Q 5.515625 40.765625 12.171875 48.375 
Q 18.84375 56 30.609375 56 
z
" id="DejaVuSans-111"/>
     <path d="M 44.28125 53.078125 
L 44.28125 44.578125 
Q 40.484375 46.53125 36.375 47.5 
Q 32.28125 48.484375 27.875 48.484375 
Q 21.1875 48.484375 17.84375 46.4375 
Q 14.5 44.390625 14.5 40.28125 
Q 14.5 37.15625 16.890625 35.375 
Q 19.28125 33.59375 26.515625 31.984375 
L 29.59375 31.296875 
Q 39.15625 29.25 43.1875 25.515625 
Q 47.21875 21.78125 47.21875 15.09375 
Q 47.21875 7.46875 41.1875 3.015625 
Q 35.15625 -1.421875 24.609375 -1.421875 
Q 20.21875 -1.421875 15.453125 -0.5625 
Q 10.6875 0.296875 5.421875 2 
L 5.421875 11.28125 
Q 10.40625 8.6875 15.234375 7.390625 
Q 20.0625 6.109375 24.8125 6.109375 
Q 31.15625 6.109375 34.5625 8.28125 
Q 37.984375 10.453125 37.984375 14.40625 
Q 37.984375 18.0625 35.515625 20.015625 
Q 33.0625 21.96875 24.703125 23.78125 
L 21.578125 24.515625 
Q 13.234375 26.265625 9.515625 29.90625 
Q 5.8125 33.546875 5.8125 39.890625 
Q 5.8125 47.609375 11.28125 51.796875 
Q 16.75 56 26.8125 56 
Q 31.78125 56 36.171875 55.265625 
Q 40.578125 54.546875 44.28125 53.078125 
z
" id="DejaVuSans-115"/>
    </defs>
    <g transform="translate(208.135312 28.56)scale(0.12 -0.12)">
     <use xlink:href="#DejaVuSans-76"/>
     <use x="55.697266" xlink:href="#DejaVuSans-111"/>
     <use x="116.878906" xlink:href="#DejaVuSans-115"/>
     <use x="168.978516" xlink:href="#DejaVuSans-115"/>
    </g>
   </g>
   <g id="legend_1">
    <g id="patch_7">
     <path d="M 61 71.91625 
L 116.275 71.91625 
Q 118.275 71.91625 118.275 69.91625 
L 118.275 41.56 
Q 118.275 39.56 116.275 39.56 
L 61 39.56 
Q 59 39.56 59 41.56 
L 59 69.91625 
Q 59 71.91625 61 71.91625 
z
" style="fill:#ffffff;opacity:0.8;stroke:#cccccc;stroke-linejoin:miter;"/>
    </g>
    <g id="line2d_21">
     <path d="M 63 47.658437 
L 83 47.658437 
" style="fill:none;stroke:#1f77b4;stroke-linecap:square;stroke-width:1.5;"/>
    </g>
    <g id="line2d_22"/>
    <g id="text_20">
     <!-- train -->
     <defs>
      <path d="M 18.3125 70.21875 
L 18.3125 54.6875 
L 36.8125 54.6875 
L 36.8125 47.703125 
L 18.3125 47.703125 
L 18.3125 18.015625 
Q 18.3125 11.328125 20.140625 9.421875 
Q 21.96875 7.515625 27.59375 7.515625 
L 36.8125 7.515625 
L 36.8125 0 
L 27.59375 0 
Q 17.1875 0 13.234375 3.875 
Q 9.28125 7.765625 9.28125 18.015625 
L 9.28125 47.703125 
L 2.6875 47.703125 
L 2.6875 54.6875 
L 9.28125 54.6875 
L 9.28125 70.21875 
z
" id="DejaVuSans-116"/>
      <path d="M 41.109375 46.296875 
Q 39.59375 47.171875 37.8125 47.578125 
Q 36.03125 48 33.890625 48 
Q 26.265625 48 22.1875 43.046875 
Q 18.109375 38.09375 18.109375 28.8125 
L 18.109375 0 
L 9.078125 0 
L 9.078125 54.6875 
L 18.109375 54.6875 
L 18.109375 46.1875 
Q 20.953125 51.171875 25.484375 53.578125 
Q 30.03125 56 36.53125 56 
Q 37.453125 56 38.578125 55.875 
Q 39.703125 55.765625 41.0625 55.515625 
z
" id="DejaVuSans-114"/>
      <path d="M 34.28125 27.484375 
Q 23.390625 27.484375 19.1875 25 
Q 14.984375 22.515625 14.984375 16.5 
Q 14.984375 11.71875 18.140625 8.90625 
Q 21.296875 6.109375 26.703125 6.109375 
Q 34.1875 6.109375 38.703125 11.40625 
Q 43.21875 16.703125 43.21875 25.484375 
L 43.21875 27.484375 
z
M 52.203125 31.203125 
L 52.203125 0 
L 43.21875 0 
L 43.21875 8.296875 
Q 40.140625 3.328125 35.546875 0.953125 
Q 30.953125 -1.421875 24.3125 -1.421875 
Q 15.921875 -1.421875 10.953125 3.296875 
Q 6 8.015625 6 15.921875 
Q 6 25.140625 12.171875 29.828125 
Q 18.359375 34.515625 30.609375 34.515625 
L 43.21875 34.515625 
L 43.21875 35.40625 
Q 43.21875 41.609375 39.140625 45 
Q 35.0625 48.390625 27.6875 48.390625 
Q 23 48.390625 18.546875 47.265625 
Q 14.109375 46.140625 10.015625 43.890625 
L 10.015625 52.203125 
Q 14.9375 54.109375 19.578125 55.046875 
Q 24.21875 56 28.609375 56 
Q 40.484375 56 46.34375 49.84375 
Q 52.203125 43.703125 52.203125 31.203125 
z
" id="DejaVuSans-97"/>
      <path d="M 9.421875 54.6875 
L 18.40625 54.6875 
L 18.40625 0 
L 9.421875 0 
z
M 9.421875 75.984375 
L 18.40625 75.984375 
L 18.40625 64.59375 
L 9.421875 64.59375 
z
" id="DejaVuSans-105"/>
      <path d="M 54.890625 33.015625 
L 54.890625 0 
L 45.90625 0 
L 45.90625 32.71875 
Q 45.90625 40.484375 42.875 44.328125 
Q 39.84375 48.1875 33.796875 48.1875 
Q 26.515625 48.1875 22.3125 43.546875 
Q 18.109375 38.921875 18.109375 30.90625 
L 18.109375 0 
L 9.078125 0 
L 9.078125 54.6875 
L 18.109375 54.6875 
L 18.109375 46.1875 
Q 21.34375 51.125 25.703125 53.5625 
Q 30.078125 56 35.796875 56 
Q 45.21875 56 50.046875 50.171875 
Q 54.890625 44.34375 54.890625 33.015625 
z
" id="DejaVuSans-110"/>
     </defs>
     <g transform="translate(91 51.158437)scale(0.1 -0.1)">
      <use xlink:href="#DejaVuSans-116"/>
      <use x="39.208984" xlink:href="#DejaVuSans-114"/>
      <use x="80.322266" xlink:href="#DejaVuSans-97"/>
      <use x="141.601562" xlink:href="#DejaVuSans-105"/>
      <use x="169.384766" xlink:href="#DejaVuSans-110"/>
     </g>
    </g>
    <g id="line2d_23">
     <path d="M 63 62.336562 
L 83 62.336562 
" style="fill:none;stroke:#ff7f0e;stroke-linecap:square;stroke-width:1.5;"/>
    </g>
    <g id="line2d_24"/>
    <g id="text_21">
     <!-- test -->
     <defs>
      <path d="M 56.203125 29.59375 
L 56.203125 25.203125 
L 14.890625 25.203125 
Q 15.484375 15.921875 20.484375 11.0625 
Q 25.484375 6.203125 34.421875 6.203125 
Q 39.59375 6.203125 44.453125 7.46875 
Q 49.3125 8.734375 54.109375 11.28125 
L 54.109375 2.78125 
Q 49.265625 0.734375 44.1875 -0.34375 
Q 39.109375 -1.421875 33.890625 -1.421875 
Q 20.796875 -1.421875 13.15625 6.1875 
Q 5.515625 13.8125 5.515625 26.8125 
Q 5.515625 40.234375 12.765625 48.109375 
Q 20.015625 56 32.328125 56 
Q 43.359375 56 49.78125 48.890625 
Q 56.203125 41.796875 56.203125 29.59375 
z
M 47.21875 32.234375 
Q 47.125 39.59375 43.09375 43.984375 
Q 39.0625 48.390625 32.421875 48.390625 
Q 24.90625 48.390625 20.390625 44.140625 
Q 15.875 39.890625 15.1875 32.171875 
z
" id="DejaVuSans-101"/>
     </defs>
     <g transform="translate(91 65.836562)scale(0.1 -0.1)">
      <use xlink:href="#DejaVuSans-116"/>
      <use x="39.208984" xlink:href="#DejaVuSans-101"/>
      <use x="100.732422" xlink:href="#DejaVuSans-115"/>
      <use x="152.832031" xlink:href="#DejaVuSans-116"/>
     </g>
    </g>
   </g>
  </g>
 </g>
 <defs>
  <clipPath id="pdcdc0e7d1b">
   <rect height="217.44" width="334.8" x="54" y="34.56"/>
  </clipPath>
 </defs>
</svg>
